<svg id="edVsQvWDup21" xmlns="http://www.w3.org/2000/svg" xmlns:xlink="http://www.w3.org/1999/xlink" viewBox="0 0 1000 1000" shape-rendering="geometricPrecision" text-rendering="geometricPrecision" project-id="a4a14080583e4d47bc91f191b3be1fc3" export-id="b1bb13a780de43f28ccad840e9383343" cached="false"><defs><filter id="edVsQvWDup22-filter" x="-150%" y="-150%" width="400%" height="400%"><feColorMatrix id="edVsQvWDup22-filter-hue-rotate-0" type="hueRotate" values="0" result="result"/></filter><filter id="edVsQvWDup29-filter" x="-150%" y="-150%" width="400%" height="400%"><feGaussianBlur id="edVsQvWDup29-filter-blur-0" stdDeviation="10,0" result="result"/></filter><filter id="edVsQvWDup210-filter" x="-150%" y="-150%" width="400%" height="400%"><feGaussianBlur id="edVsQvWDup210-filter-blur-0" stdDeviation="10,0" result="result"/></filter><filter id="edVsQvWDup220-filter" x="-150%" y="-150%" width="400%" height="400%"><feGaussianBlur id="edVsQvWDup220-filter-blur-0" stdDeviation="0,0" result="result"/></filter></defs><path d="M587.278,293.079c-3.913-6.993-7.946-10.292-15.874-12.518-15.039-4.223-31.594-.614-45,6.866-7.08,3.95-11.647,9.417-18.129,13.817-4.876,3.31-11.669,5.748-17.163,7.63-14.324,5.169-28.383,6.502-43.088,2.069-9.252-2.789-18.817-7.307-23.394-16.376-7.698-15.252-3.076-32.684,12.378-40.501c11.838-5.997,25.604-6.929,38.142-2.582c7.006,2.369,12.15,5.668,17.032,11.223-14.605-8.02-26.892-13.24-43.825-8.268-15.456,4.538-26.453,15.235-20.539,32.57c7.972,23.37,38.215,25.042,58.13,18.483c9.947-3.276,18.578-12.436,27.081-18.292c18.666-12.808,43.22-17.753,64.634-8.997c6.428,2.629,10.755,7.851,13.096,14.266c25.373-5.498,56.491,1.892,78.715,15.345c33.584,20.329,44.417,67.936,22.441,101.3-2.638,3.991-5.699,7.686-9.13,11.02c19.291,15.164,31.825,37.322,34.883,61.667c3.119,25.419-5.209,50.56-20.908,70.528-11.788,15.009-27.237,26.735-44.864,34.051-1.621,4.17-4.32,11.399-6.441,15.132-13.246,23.31-35.269,38.873-58.613,50.7-1.24.579-3.151,1.404-4.269,2.065-3.979,1.424-8.407,3.414-12.362,5.09-23.209,9.837-48.57,9.07-71.138,21.297-3.474,1.882-13.674,8.681-16.679,8.473-1.732-1.098-1.173-.375-1.931-2.075.59-3.472,6.559-7.13,9.564-9.425-11.748-21.978-35.995-42.899-59.459-51.111-9.059,11.524-16.556,19.761-28.3,28.602c9.327,3.503,13.87,8.129,18.718,16.532c22.539-4.406,44.515-2.187,57.277,19.55c5.563,9.446,7.1,20.73,4.265,31.32-3.912,14.318-19.11,25.111-34.191,20.606-11.356-3.393-17.014-12.531-14.293-24.161c1.286-5.498,3.725-10.351,9.338-12.584c1.777-.721,4.785-1.803,6.612-1.052-2.593,1.413-6.7,2.836-8.517,5.194-10.435,13.538.751,32.315,17.572,29.292c6.154-1.106,12.112-6.721,15.415-12.113c10.247-16.73,1.31-38.979-14.693-48.419-11.472-6.807-24.577-5.821-37.097-2.679.765,2.474,1.264,5.023,1.487,7.603c1.354,14.542-2.705,30.934-12.371,42.091-24.583,27.977-79.417,34.391-108.487,10.273-13.473-11.178-22.155-32.253-20.621-49.6c1.708-19.332,10.032-39.834,22.93-54.441c33.059-37.443,86.074-47.744,133.542-51.085l-.743-66.415c-2.784-.931-6.687-2.227-9.596-2.268-6.424,40.874-34.432,68.132-76.367,70.047-46.144,2.106-73.448-37.475-74.733-80.128-1.063-35.265,10.133-70.856,34.85-96.631-12.289-8.071-20.489-15.082-27.605-28.482-16.447-30.973-4.309-78.55,27.757-94.507c26.789-13.331,74.226-10.638,88.932,19.811c5.33,11.035,5.823,20.36,1.975,31.907c33.267-16.529,70.807-20.93,107.419-17.219c4.07.412,8.307,1.25,12.356,1.511l.997.059c17.954-10.147,42.38-22.14,62.882-26.061ZM439.671,387.638c2.992,2.469,6.295,5.828,8.91,8.74l-11.15-7.067c-6.745,4.858-16.59,11.51-24.034,15.263c17.523,11.648,12.031,33.195,2.843,48.258-1.669,2.737-4.905,4.902-6.424,7.308c7.729,5.662,10.618,9.436,14.928,18.093c4.28-.807,7.504-1.359,11.82-1.796-1.802-38.121,6.025-71.64,32.298-100.835c10.783-11.983,33.176-28.089,48.968-32.136-15.509,9.149-29.542,22.664-34.334,40.642-3.004,11.269-2.264,25.473-2.122,37.338l.629,36.136c.805,40.865,2.285,83.934,2.41,124.614-2.176.617-5.594,1.473-7.491,2.484-2.954.453-5.042,1.662-7.579,3.233-10.065,5.988-17.031,13.888-24.824,22.455c26.947,5.682,55.921,21.248,76.51,39.338c3.982,3.498,9.937,9.044,13.051,13.126c12.535-6.281,28.273-15.188,38.922-24.452l3.018-2.616c12.567-9.804,23.556-25.91,30.206-40.324c1.009-2.56,3.57-7.952,2.739-10.335l.824-.639c4.104-13.587,2.278-33.224-.053-47.327-16.355,4.746-37.399,3.259-52.633-4.268-19.013-9.393-30.094-22.529-37.07-42.131l9.831-1.725c7.467,26.164,38.264,43.12,64.169,45.215c3.958.32,10.644-.799,14.752-1.356-6.113-26.276-20.214-43.793-43.407-56.851c3.298-1.971,8.621-5.945,11.942-8.234-5.338-1.364-10.689-2.677-16.052-3.939c6.045-8.327,8.005-11.514,11.321-21.219-9.546-4.048-16.938-8.072-23.693-16.244-10.826,11.156-16.348,19.839-20.042,35.064l-8.46.662c4.101-15.422,13.83-29.133,25.603-39.696-11.872-21.313-7.618-48.724,4.843-68.809-12.741-11.662-25.798-18.183-42.735-21.864-8.626,6.149-17.128,12.308-25.077,19.324-14.155,12.495-27.848,25.685-43.357,36.57ZM424.562,512.081c-14.292-1.833-24.935,4.455-34.361,14.431-.23-9.077-.35-15.194,2.915-23.717-20.25,1.323-10.574,16.024-21.488,21.817-25.435,13.501-44.203-12.565-36.279-36.125c5.351-15.913,13.634-23.115,26.389-30.424-12.232-9.069-16.845-25.584-16.167-40.181-9.729-2.497-19.942-5.106-28.846-9.852-5.617,6.338-9.856,11.146-14.513,18.468-13.762,21.64-19.808,49.829-18.733,75.325.756,17.936,8.093,34.681,21.596,46.621c13.701,12.116,37.223,21.227,55.555,19.868c18.438-1.367,38.774-9.126,50.859-23.65c8.593-10.329,11.162-19.653,13.073-32.581ZM561.764,329.596c14.826-8.606,25.734-11.835,26.263-32.141-23.931,5.291-38.444,10.821-60.161,22.282l.429.143c3.884,1.26,8.929,2.292,13.08,3.508c11.352,3.326,19.11,7.14,29.048,13.201c13.386-8.087,32.804-12.037,48.946-8.518c15.318,3.339,32.738,15.19,29.678,33.49-1.296,7.755-15.663,21.59.215,26.245c5.641,1.562,11.713-1.231,16.544-4.542-1.882,3.12-4.625,7.453-8.619,8.129-10.647,1.801-24.443-4.743-26.652-15.953-2.117-10.742,3.873-15.82,6.547-24.904c1.364-4.632-3.131-12.474-7.158-14.704-15.354-9.537-40.74-5.032-55.493,3.584c19.69,13.878,32.606,32.944,36.34,56.348.121.757.851.84,1.409.911c2.991-.26,10.167.34,13.228.662c20.105,2.112,37.782,8.391,54.131,20.28c16.781-17.036,21.533-34.817,17.924-58.432-2.783-18.208-12.146-34.258-27.263-44.935-21.527-15.205-52.838-21.527-78.654-17.261.489,18.506-13.632,28.087-29.782,32.607Zm15.468,138.195c27.655,8.104,51.601,24.34,65.649,49.945l.241.443c4.814-4.739,9.234-9.242,12.102-15.513c5.058-11.057,6.54-27.119-2.853-36.377-7.317-7.211-17.527-8.301-27.285-8.25-1.321.058-4.391.391-5.268-.289c2.49-.992,4.665-1,7.342-1.235c2.895-.507,5.406-.482,8.309-.409c31.416.791,36.169,33.155,19.902,54.285-3.1,3.952-6.708,7.479-10.73,10.489c1.479,3.545,4.107,9.311,5.202,12.771c4.081,12.891,6.251,31.492,3.705,44.853c38.708-17.542,64.816-46.039,59.98-90.878-2.996-27.775-11.128-47.374-32.998-65.364-1.057.985-2.145,1.935-3.264,2.848-20.463,16.932-52.964,25.473-79.361,23.051-6.729,8.002-12.217,13.167-20.673,19.63ZM356.81,379.557c.687-.331,9.526-13.947,11.17-16.014-16.826,3.408-39.615-2.423-44.873-20.508-4.578-14.083,4.643-32.266,18.772-36.942c13.28-4.396,18.268,13.504,31.611,10.317c4.996-1.193,1.236-9.691-.394-12.777l.271-.463c10.176-.034,9.769,11.198,5.177,17.427-5,6.85-9.453,8.253-17.412,9.022-9.058.875-25.235-17.373-31.971-5.993-5.293,8.941-.781,26.174,8.77,31.004c11.975,6.055,23.202,5.312,35.787,2.113c9.649-9.159,14.152-12.534,25.314-19.523c4.269-9.792,4.508-18.312.67-28.364-10.916-28.596-52.613-35.126-77.996-25.22-33.152,12.937-49.246,51.681-35.586,84.393c6.882,16.481,15.883,24.901,30.706,34.062c12.669-11.363,23.782-17.185,39.984-22.534Zm60.239,299.592c-19.478,13.568-15.581,30.69-43.081,38.582-48.214,13.836-56.827-37.587-18.776-58.277-10.157-14.525.839-29.544,13.07-38.086c21.225-14.824,45.144-16.69,70.077-12.601.172-3.644,1.544-19.098.238-21.61-58.143,5.054-148.007,34.091-144.266,108.617.69,13.739,7.432,26.939,17.955,35.427c11.008,9.055,29.775,15.447,43.976,13.844c18.916-2.135,40.801-9.598,52.91-25.078c9.399-12.016,12.057-26.223,7.897-40.818Zm-36.01-319.38c-3.666,2.391-12.41,12.909-13.509,16.493l.146.468c22.462-5.173,42.775-3.463,63.963,6.001c11.209-7.592,23.282-14.591,33.959-22.949c13.008-10.182,24.943-19.512,38.85-28.568-6.8-1.785-15.711-2.467-22.96-2.748-27.036-1.05-56.545,2.363-80.428,15.712-1.571.878-2.899,1.839-4.183,3.08-4.204,5.59-9.343,9.8-15.838,12.511Zm173.018-2.83c-11.424,19.009-15.119,41.958-4.032,62.057c7.347-6.186,15.65-11.135,24.585-14.656-.004-1.043-.886-5.66-1.124-6.933-2.771-14.975-9.476-28.942-19.429-40.468ZM392.785,652.793c11.204-5.889,24.674-18.895,33.494-27.823-22.911-6.963-57.519-8.255-69.055,20.071-1.629,3.999.244,9.116,3.151,12.243c8.737-4.192,22.736-6.715,32.41-4.491ZM346.81,409.886c2.48-10.183,4.306-16.3,8.417-25.908-13.672,5.265-22.668,10.687-34.034,20.043c10.148,3.829,15.057,4.775,25.617,5.865Zm91.272,198.872c-2.221,4.717-10.723,15.069-10.416,16.579c1.619.438,2.747,1.229,4.008-.145c3.973-4.868,8.583-10.489,12.91-15.047-2.529-.409-4.033-.605-6.502-1.387Zm-39.98-149.343c-10.139-3.01-13.672-3.627-23.954-1.004c7.826,3.459,15.871,3.709,23.954,1.004Zm16.994,214.093c.632,1.651,1.349,4.16,2.577,5.276c1.624-.825,3.255-1.64,4.891-2.442-.542-1.351-1.167-3.365-2.088-4.317l-5.38,1.483ZM573.8,437.789c1.879-6.992,1.547-20.995,1.336-28.477-9.146,4.216-14.194,7.427-22.369,13.47c6.143,6.87,12.387,11.54,21.033,15.007ZM352.572,418.794c-.513,12.555,4.439,29.626,15.856,36.419c13.413-4.123,21.518-3.569,34.746,1.254c5.47-4.57,11.015-12.823,9.273-19.955-2.203-9.02-10.779-14.429-16.905-4.914-6.556-4.911-7.683-7.347-8.809-15.139-13.839,4.051-19.902,4.698-34.161,2.335Zm31.959,237.757c-6.16.924-11.847,1.789-17.877,3.385c4.017.938,15.202-.177,17.877-3.385Zm-25.675,6.222c-8.205,4.091-14.121,8.52-18.448,16.915-5.813,11.279-3.954,28.818,8.729,34.502c9.003,4.035,25.23.324,30.517-8.356c4.082-6.702,7.53-14.063,13.21-19.639c6.55-6.511,13.563-9.548,22.046-12.824-4.571-7.823-7.781-11.711-16.273-15.456-2.719.911-5.342,2.434-7.965,3.648-10.298,4.766-21.382,7.035-31.816,1.21Zm6.725-282.074c-3.314,1.957-11.702,24.577-11.146,28.805c1.689.205,2.379.259,4.075.265c25.662-2.01,47.536-12.861,69.623-25.038-21.95-8.374-39.582-9.786-62.552-4.032Zm28.075,120.793c5.395-11.91,14.2-17.773,26.27-21.838-3.251-7.414-8.392-11.892-14.595-16.7-12.719,6.757-26.886,4.311-39.215-2.064-5.384,2.93-9.192,5.066-14.193,9.697-12.87,11.918-23.468,42.36-.926,50.268c2.558.897,8.097,1.273,10.75-.106c1.701-2.323,2.585-5.245,2.955-8.098c2.277-17.516,16.015-19.936,28.954-11.159ZM611.09,401.481c.345,11.119-1.373,22.206-5.067,32.699-.695,1.998-4.777,8.838-4.572,9.497l2.909.607c24.022-.125,53.969-9.636,72.649-24.659-20.676-12.614-41.645-18.217-65.919-18.144Z" filter="url(#edVsQvWDup22-filter)" fill="none" stroke="#7d492f"/><path d="M521.423,362.156c3.314,2.869,3.494,11.122,2.974,15.344-.893,7.249-4.738,13.607-10.152,18.398-5.555,4.917-11.888,9.513-14.866,16.573-2.408,5.776-3.136,15.276-.628,21.128c3.033,7.08,11.57,9.251,18.127,5.825c5.497-2.912,6.615-7.251,8.248-12.857-.148,2.696-.519,5.455-.83,8.144-3.47,11.71-15.549,11.371-24.478,5.609-13.482-8.701-9.624-37.553,1.497-46.418c12.077-9.626,22.263-13.144,20.108-31.746Z" fill="none" stroke="#e2cfc2"/><path d="M367.98,363.543c-16.826,3.408-39.615-2.423-44.873-20.508-4.578-14.083,4.643-32.266,18.772-36.942c13.28-4.396,18.268,13.504,31.611,10.317c4.996-1.193,1.236-9.691-.394-12.777l.271-.463c10.176-.034,9.769,11.198,5.177,17.427-5,6.85-9.453,8.253-17.412,9.022-9.058.875-25.235-17.373-31.971-5.993-5.293,8.941-.781,26.174,8.77,31.004c11.975,6.055,23.202,5.312,35.787,2.113-1.992,2.651-3.498,4.348-5.738,6.8Z" fill="none" stroke="#e2cfc2"/><path d="M570.423,336.589c13.386-8.087,32.804-12.037,48.946-8.518c15.318,3.339,32.738,15.19,29.678,33.49-1.296,7.755-15.663,21.59.215,26.245c5.641,1.562,11.713-1.231,16.544-4.542-1.882,3.12-4.625,7.453-8.619,8.129-10.647,1.801-24.443-4.743-26.652-15.953-2.117-10.742,3.873-15.82,6.547-24.904c1.364-4.632-3.131-12.474-7.158-14.704-15.354-9.537-40.74-5.032-55.493,3.584l-4.008-2.827Z" fill="none" stroke="#e2cfc2"/><path d="M627.16,456.515c2.895-.507,5.406-.482,8.309-.409c31.416.791,36.169,33.155,19.902,54.285-3.1,3.952-6.708,7.479-10.73,10.489-.718-1.003-.968-1.61-1.519-2.701c4.814-4.739,9.234-9.242,12.102-15.513c5.058-11.057,6.54-27.119-2.853-36.377-7.317-7.211-17.527-8.301-27.285-8.25l2.074-1.524Z" fill="none" stroke="#e2cfc2"/><path d="M422.674,676.614c.765,2.474,1.264,5.023,1.487,7.603c1.354,14.542-2.705,30.934-12.371,42.091-24.583,27.977-79.417,34.391-108.487,10.273-13.473-11.178-22.155-32.253-20.621-49.6c1.708-19.332,10.032-39.834,22.93-54.441c33.059-37.443,86.074-47.744,133.542-51.085-.002,1.303.342,4.892-.577,5.702-58.143,5.054-148.007,34.091-144.266,108.617.69,13.739,7.432,26.939,17.955,35.427c11.008,9.055,29.775,15.447,43.976,13.844c18.916-2.135,40.801-9.598,52.91-25.078c9.399-12.016,12.057-26.223,7.897-40.818-19.478,13.568-15.581,30.69-43.081,38.582-48.214,13.836-56.827-37.587-18.776-58.277l3.664,3.319c-8.205,4.091-14.121,8.52-18.448,16.915-5.813,11.279-3.954,28.818,8.729,34.502c9.003,4.035,25.23.324,30.517-8.356c4.082-6.702,7.53-14.063,13.21-19.639c6.55-6.511,13.563-9.548,22.046-12.824-4.571-7.823-7.781-11.711-16.273-15.456.787-1.342,2.19-1.914,3.631-2.787c9.327,3.503,13.87,8.129,18.718,16.532c22.539-4.406,44.515-2.187,57.277,19.55c5.563,9.446,7.1,20.73,4.265,31.32-3.912,14.318-19.11,25.111-34.191,20.606-11.356-3.393-17.014-12.531-14.293-24.161c1.286-5.498,3.725-10.351,9.338-12.584c1.777-.721,4.785-1.803,6.612-1.052-2.593,1.413-6.7,2.836-8.517,5.194-10.435,13.538.751,32.315,17.572,29.292c6.154-1.106,12.112-6.721,15.415-12.113c10.247-16.73,1.31-38.979-14.693-48.419-11.472-6.807-24.577-5.821-37.097-2.679Zm-7.578-3.106c.632,1.651,1.349,4.16,2.577,5.276c1.624-.825,3.255-1.64,4.891-2.442-.542-1.351-1.167-3.365-2.088-4.317l-5.38,1.483Z" fill="none" stroke="#e2cfc2"/><path d="M484.271,539.772c.623-1.838,1.517-4.747,2.711-6.221c6.137-7.577,19.577-9.861,28.794-8.76c18.222,2.177,38.409,11.283,46.012,29.127c2.599,6.003,3.444,11.138,4.495,17.501c13.267,7.892,27.039,13.117,42.682,13.686.831,2.383-1.73,7.775-2.739,10.335-14.63-.374-27.12-1.594-41.327-5.734.492-4.573,1.884-13.34.628-17.933-.372-1.361-1.705-1.734-2.917-2.315.787,6.431.054,12.22-.456,18.645.592,1.187,1.05.977,2.745,1.603-1.537,9.359-4.644,18.473-10.841,25.843c7.83,5.119,16.027,12.961,21.962,20.215l-3.018,2.616c-7.575-8.869-12.441-13.194-21.407-20.157-25.394,25.607-76.218,16.282-59.655-25.794-7.449-1.898-14.991-3.405-22.597-4.516c2.537-1.571,4.625-2.78,7.579-3.233c5.758.991,11.476,2.201,17.142,3.627c5.198-7.525,10.666-12.66,19.027-16.663c14.517-6.95,34.334-9.017,49.381-2.647-3.97-14.738-9.012-24.046-22.8-31.883-12.324-7.005-27.092-10.125-41.06-6.596-7.69,1.942-8.83,4.985-14.341,9.254Zm62.992,75.676c-17.821-11.586-30.303-15.253-49.833-21.773-5.652,13.371-4.413,26.626,10.572,33.241c9.592,4.235,21.16.411,29.907-4.523c3.97-2.528,5.78-3.896,9.354-6.945Zm-46.888-25.387c13.728,4.072,32.004,10.916,43.968,18.92c1.969,1.172,3.911,2.391,5.822,3.657c6.736-8.979,8.601-12.923,11.58-23.825-11.644-3.219-27.97-10.737-39.395-9.505-9.342.809-15.501,4.06-21.975,10.753Z" fill="none" stroke="#e2cfc2"/><path d="M312.565,406.06c-12.289-8.071-20.489-15.082-27.605-28.482-16.447-30.973-4.309-78.55,27.757-94.507c26.789-13.331,74.226-10.638,88.932,19.811c5.33,11.035,5.823,20.36,1.975,31.907-1.514.879-2.962,1.793-4.592,2.431c4.269-9.792,4.508-18.312.67-28.364-10.916-28.596-52.613-35.126-77.996-25.22-33.152,12.937-49.246,51.681-35.586,84.393c6.882,16.481,15.883,24.901,30.706,34.062c12.669-11.363,23.782-17.185,39.984-22.534.451,1.483-.734,3.143-1.583,4.421-13.672,5.265-22.668,10.687-34.034,20.043c10.148,3.829,15.057,4.775,25.617,5.865l-1.239,7.996c-9.729-2.497-19.942-5.106-28.846-9.852-5.617,6.338-9.856,11.146-14.513,18.468-13.762,21.64-19.808,49.829-18.733,75.325.756,17.936,8.093,34.681,21.596,46.621c13.701,12.116,37.223,21.227,55.555,19.868c18.438-1.367,38.774-9.126,50.859-23.65c8.593-10.329,11.162-19.653,13.073-32.581c1.464.115,2.944.093,4.253.691-6.424,40.874-34.432,68.132-76.367,70.047-46.144,2.106-73.448-37.475-74.733-80.128-1.063-35.265,10.133-70.856,34.85-96.631Z" opacity="0.34" filter="url(#edVsQvWDup29-filter)" fill="none" stroke="#e2cfc2"/><path d="M587.278,293.079c-3.913-6.993-7.946-10.292-15.874-12.518-15.039-4.223-31.594-.614-45,6.866-7.08,3.95-11.647,9.417-18.129,13.817-4.876,3.31-11.669,5.748-17.163,7.63-14.324,5.169-28.383,6.502-43.088,2.069-9.252-2.789-18.817-7.307-23.394-16.376-7.698-15.252-3.076-32.684,12.378-40.501c11.838-5.997,25.604-6.929,38.142-2.582c7.006,2.369,12.15,5.668,17.032,11.223-14.605-8.02-26.892-13.24-43.825-8.268-15.456,4.538-26.453,15.235-20.539,32.57c7.972,23.37,38.215,25.042,58.13,18.483c9.947-3.276,18.578-12.436,27.081-18.292c18.666-12.808,43.22-17.753,64.634-8.997c6.428,2.629,10.755,7.851,13.096,14.266c25.373-5.498,56.491,1.892,78.715,15.345c33.584,20.329,44.417,67.936,22.441,101.3-2.638,3.991-5.699,7.686-9.13,11.02c19.291,15.164,31.825,37.322,34.883,61.667c3.119,25.419-5.209,50.56-20.908,70.528-11.788,15.009-27.237,26.735-44.864,34.051.315-2.649,1.028-5.273,1.652-7.876c38.708-17.542,64.816-46.039,59.98-90.878-2.996-27.775-11.128-47.374-32.998-65.364-1.057.985-2.145,1.935-3.264,2.848-20.463,16.932-52.964,25.473-79.361,23.051c2.491-4.022,1.97-3.763,6.455-3.877c24.022-.125,53.969-9.636,72.649-24.659-20.676-12.614-41.645-18.217-65.919-18.144-.255-1.738-.545-2.64-.023-4.323l1.113-.483c2.991-.26,10.167.34,13.228.662c20.105,2.112,37.782,8.391,54.131,20.28c16.781-17.036,21.533-34.817,17.924-58.432-2.783-18.208-12.146-34.258-27.263-44.935-21.527-15.205-52.838-21.527-78.654-17.261.489,18.506-13.632,28.087-29.782,32.607c14.826-8.606,25.734-11.835,26.263-32.141-23.931,5.291-38.444,10.821-60.161,22.282-1.723.107-1.863-.056-3.47-.597c17.954-10.147,42.38-22.14,62.882-26.061Z" filter="url(#edVsQvWDup210-filter)" fill="none" stroke="#e2cfc2"/><path d="M528.854,461.451c12.724-.195,19.65-.033,32.414,2.399-2.858,3.228-4.22,4.528-7.512,7.325c4.501,1.546,8.134,3.035,12.496,4.871-12.916,6.102-22.055,10.181-36.388,12.969l-9.831,1.725c-8.55.948-21.643,1.797-29.51-2.313-1.733-.927-3.723-3.054-3.951-5.108-1.826-16.394,23.364-19.588,33.822-21.206l8.46-.662Zm-9.648,5.57c-34.172,6.004-32.241,24.928-.371,18.16-.904-6.716-1.062-11.494.371-18.16Zm9.163,16.233c10.278-2.69,16.687-6.358,25.336-12.056-9.751-2.974-15.804-3.874-25.8-4.627-.112,5.698-.298,10.996.464,16.683Z" fill="none" stroke="#7d492f"/><path d="M519.206,467.021c3.141-.345,5.548-.394,8.699-.45-.112,5.698-.298,10.996.464,16.683-3.492.873-5.952,1.54-9.534,1.927-.904-6.716-1.062-11.494.371-18.16Z" fill="none" stroke="#e2cfc2"/><path d="M361.738,458.063l4.378,2.827c-5.384,2.93-9.192,5.066-14.193,9.697-12.87,11.918-23.468,42.36-.926,50.268c2.558.897,8.097,1.273,10.75-.106c1.701-2.323,2.585-5.245,2.955-8.098c2.277-17.516,16.015-19.936,28.954-11.159l-.54,1.303c-20.25,1.323-10.574,16.024-21.488,21.817-25.435,13.501-44.203-12.565-36.279-36.125c5.351-15.913,13.634-23.115,26.389-30.424Z" fill="none" stroke="#e2cfc2"/><path d="M550.84,353.608l3.217,3.331c-11.424,19.009-15.119,41.958-4.032,62.057c7.347-6.186,15.65-11.135,24.585-14.656.151,1.368.483,3.678.526,4.972-9.146,4.216-14.194,7.427-22.369,13.47c6.143,6.87,12.387,11.54,21.033,15.007-.365,1.605-.696,3.291-1.211,4.842-9.546-4.048-16.938-8.072-23.693-16.244-10.826,11.156-16.348,19.839-20.042,35.064l-8.46.662c4.101-15.422,13.83-29.133,25.603-39.696-11.872-21.313-7.618-48.724,4.843-68.809Z" fill="none" stroke="#e2cfc2"/><path d="M520.033,490.74l9.831-1.725c7.467,26.164,38.264,43.12,64.169,45.215c3.958.32,10.644-.799,14.752-1.356l.951,4.265c-16.355,4.746-37.399,3.259-52.633-4.268-19.013-9.393-30.094-22.529-37.07-42.131Z" fill="none" stroke="#e2cfc2"/><path d="M368.428,455.213c13.413-4.123,21.518-3.569,34.746,1.254-1.854,1.175-3.115,1.981-5.072,2.948-10.139-3.01-13.672-3.627-23.954-1.004-2.659-1.041-3.4-1.611-5.72-3.198Z" fill="none" stroke="#e2cfc2"/><path d="M405.331,462.954c1.4-.978,2.943-2.166,4.485-2.814c7.729,5.662,10.618,9.436,14.928,18.093l-4.818,1.421c-3.251-7.414-8.392-11.892-14.595-16.7Z" fill="none" stroke="#e2cfc2"/><path d="M381.039,359.769c.777-2.793,12.731-12.066,15.838-12.511-4.204,5.59-9.343,9.8-15.838,12.511Z" fill="none" stroke="#e2cfc2"/><path d="M360.375,657.284c8.737-4.192,22.736-6.715,32.41-4.491-2.659,1.752-5.004,3.248-8.254,3.758-6.16.924-11.847,1.789-17.877,3.385-2.498-.118-4.27-1.316-6.279-2.652Z" fill="none" stroke="#e2cfc2"/><path d="M681.128,667.613c-2.167,7.261-5.108,13.29-12.46,16.711-26.833,12.486-57.538-2.627-46.537-35.68c8.589-25.803,43.537-36.743,67.546-27.616c12.082,4.593,23.162,12.506,28.614,24.741c11.839,28.817-1.179,61.127-29.976,73.313-23.532,9.957-45.103,9.642-68.93,1.105-13.656-5.158-20.479-10.956-26.566-23.879-4.523,24.007-21.802,40.036-46.939,34.987-15.008-3.014-22.719-16.296-19.437-30.635c6.409-28.002,42.026-31.143,63.602-20.218-2.006-10.585-2.978-16.218-7.472-26.165c1.118-.661,3.029-1.486,4.269-2.065c5.939,12.167,7.013,17.883,8.11,31.134c11.787,7.694,15.057,13.435,24.136,23.219c25.582,27.569,72.89,15.154,92.17-13.651c13.04-19.482,6.52-50.241-13.629-62.571-10.934-6.711-24.601-9.412-37.201-6.651-16.67,3.654-29.359,22.712-25.466,39.55c3.158,13.656,15.455,22.381,29.523,18.617c8.29-2.219,12.45-7.198,16.643-14.246ZM572.441,722.59c11.623-8.254,14.166-17.816,17.651-30.955l2.903,4.696c.493-4.103,1.212-9.005,1.474-13.068l-4.116-2.449c.104,4.24.129,7.125-.197,11.329-6.918-7.745-16.665-14.748-27.688-13.241-5.292.553-11.773,1.7-16.441,4.272-23.505,12.949-18.83,49.289,13.097,44.421c4.74-.719,9.277-2.424,13.317-5.005Z" filter="url(#edVsQvWDup220-filter)" fill="none" stroke="#e2cfc2"/><path d="M625.086,458.039c-1.321.058-4.391.391-5.268-.289c2.49-.992,4.665-1,7.342-1.235l-2.074,1.524Z" fill="none" fill-opacity="0.964706" stroke="#e2c9c1"/></svg>
