<?xml version="1.0" encoding="utf-8" ?><svg xmlns="http://www.w3.org/2000/svg" xmlns:xlink="http://www.w3.org/1999/xlink" width="1000" height="1000" viewBox="0 0 1000 1000"><path fill="#7D492F" d="M587.278 293.079C583.365 286.086 579.332 282.787 571.404 280.561C556.365 276.338 539.81 279.947 526.404 287.427C519.324 291.377 514.757 296.844 508.275 301.244C503.399 304.554 496.606 306.992 491.112 308.874C476.788 314.043 462.729 315.376 448.024 310.943C438.772 308.154 429.207 303.636 424.63 294.567C416.932 279.315 421.554 261.883 437.008 254.066C448.846 248.069 462.612 247.137 475.15 251.484C482.156 253.853 487.3 257.152 492.182 262.707C477.577 254.687 465.29 249.467 448.357 254.439C432.901 258.977 421.904 269.674 427.818 287.009C435.79 310.379 466.033 312.051 485.948 305.492C495.895 302.216 504.526 293.056 513.029 287.2C531.695 274.392 556.249 269.447 577.663 278.203C584.091 280.832 588.418 286.054 590.759 292.469C616.132 286.971 647.25 294.361 669.474 307.814C703.058 328.143 713.891 375.75 691.915 409.114C689.277 413.105 686.216 416.8 682.785 420.134C702.076 435.298 714.61 457.456 717.668 481.801C720.787 507.22 712.459 532.361 696.76 552.329C684.972 567.338 669.523 579.064 651.896 586.38C650.275 590.55 647.576 597.779 645.455 601.512C632.209 624.822 610.186 640.385 586.842 652.212C585.602 652.791 583.691 653.616 582.573 654.277C578.594 655.701 574.166 657.691 570.211 659.367C547.002 669.204 521.641 668.437 499.073 680.664C495.599 682.546 485.399 689.345 482.394 689.137C480.662 688.039 481.221 688.762 480.463 687.062C481.053 683.59 487.022 679.932 490.027 677.637C478.279 655.659 454.032 634.738 430.568 626.526C421.509 638.05 414.012 646.287 402.268 655.128C411.595 658.631 416.138 663.257 420.986 671.66C443.525 667.254 465.501 669.473 478.263 691.21C483.826 700.656 485.363 711.94 482.528 722.53C478.616 736.848 463.418 747.641 448.337 743.136C436.981 739.743 431.323 730.605 434.044 718.975C435.33 713.477 437.769 708.624 443.382 706.391C445.159 705.67 448.167 704.588 449.994 705.339C447.401 706.752 443.294 708.175 441.477 710.533C431.042 724.071 442.228 742.848 459.049 739.825C465.203 738.719 471.161 733.104 474.464 727.712C484.711 710.982 475.774 688.733 459.771 679.293C448.299 672.486 435.194 673.472 422.674 676.614C423.439 679.088 423.938 681.637 424.161 684.217C425.515 698.759 421.456 715.151 411.79 726.308C387.207 754.285 332.373 760.699 303.303 736.581C289.83 725.403 281.148 704.328 282.682 686.981C284.39 667.649 292.714 647.147 305.612 632.54C338.671 595.097 391.686 584.796 439.154 581.455L438.411 515.04C435.627 514.109 431.724 512.813 428.815 512.772C422.391 553.646 394.383 580.904 352.448 582.819C306.304 584.925 279 545.344 277.715 502.691C276.652 467.426 287.848 431.835 312.565 406.06C300.276 397.989 292.076 390.978 284.96 377.578C268.513 346.605 280.651 299.028 312.717 283.071C339.506 269.74 386.943 272.433 401.649 302.882C406.979 313.917 407.472 323.242 403.624 334.789C436.891 318.26 474.431 313.859 511.043 317.57C515.113 317.982 519.35 318.82 523.399 319.081L524.396 319.14C542.35 308.993 566.776 297 587.278 293.079ZM439.671 387.638C442.663 390.107 445.966 393.466 448.581 396.378L437.431 389.311C430.686 394.169 420.841 400.821 413.397 404.574C430.92 416.222 425.428 437.769 416.24 452.832C414.571 455.569 411.335 457.734 409.816 460.14C417.545 465.802 420.434 469.576 424.744 478.233C429.024 477.426 432.248 476.874 436.564 476.437C434.762 438.316 442.589 404.797 468.862 375.602C479.645 363.619 502.038 347.513 517.83 343.466C502.321 352.615 488.288 366.13 483.496 384.108C480.492 395.377 481.232 409.581 481.374 421.446L482.003 457.582C482.808 498.447 484.288 541.516 484.413 582.196C482.237 582.813 478.819 583.669 476.922 584.68C473.968 585.133 471.88 586.342 469.343 587.913C459.278 593.901 452.312 601.801 444.519 610.368C471.466 616.05 500.44 631.616 521.029 649.706C525.011 653.204 530.966 658.75 534.08 662.832C546.615 656.551 562.353 647.644 573.002 638.38L576.02 635.764C588.587 625.96 599.576 609.854 606.226 595.44C607.235 592.88 609.796 587.488 608.965 585.105L609.789 584.466C613.893 570.879 612.067 551.242 609.736 537.139C593.381 541.885 572.337 540.398 557.103 532.871C538.09 523.478 527.009 510.342 520.033 490.74L529.864 489.015C537.331 515.179 568.128 532.135 594.033 534.23C597.991 534.55 604.677 533.431 608.785 532.874C602.672 506.598 588.571 489.081 565.378 476.023C568.676 474.052 573.999 470.078 577.32 467.789C571.982 466.425 566.631 465.112 561.268 463.85C567.313 455.523 569.273 452.336 572.589 442.631C563.043 438.583 555.651 434.559 548.896 426.387C538.07 437.543 532.548 446.226 528.854 461.451L520.394 462.113C524.495 446.691 534.224 432.98 545.997 422.417C534.125 401.104 538.379 373.693 550.84 353.608C538.099 341.946 525.042 335.425 508.105 331.744C499.479 337.893 490.977 344.052 483.028 351.068C468.873 363.563 455.18 376.753 439.671 387.638ZM424.562 512.081C410.27 510.248 399.627 516.536 390.201 526.512C389.971 517.435 389.851 511.318 393.116 502.795C372.866 504.118 382.542 518.819 371.628 524.612C346.193 538.113 327.425 512.047 335.349 488.487C340.7 472.574 348.983 465.372 361.738 458.063C349.506 448.994 344.893 432.479 345.571 417.882C335.842 415.385 325.629 412.776 316.725 408.03C311.108 414.368 306.869 419.176 302.212 426.498C288.45 448.138 282.404 476.327 283.479 501.823C284.235 519.759 291.572 536.504 305.075 548.444C318.776 560.56 342.298 569.671 360.63 568.312C379.068 566.945 399.404 559.186 411.489 544.662C420.082 534.333 422.651 525.009 424.562 512.081ZM561.764 329.596C576.59 320.99 587.498 317.761 588.027 297.455C564.096 302.746 549.583 308.276 527.866 319.737L528.295 319.88C532.179 321.14 537.224 322.172 541.375 323.388C552.727 326.714 560.485 330.528 570.423 336.589C583.809 328.502 603.227 324.552 619.369 328.071C634.687 331.41 652.107 343.261 649.047 361.561C647.751 369.316 633.384 383.151 649.262 387.806C654.903 389.368 660.975 386.575 665.806 383.264C663.924 386.384 661.181 390.717 657.187 391.393C646.54 393.194 632.744 386.65 630.535 375.44C628.418 364.698 634.408 359.62 637.082 350.536C638.446 345.904 633.951 338.062 629.924 335.832C614.57 326.295 589.184 330.8 574.431 339.416C594.121 353.294 607.037 372.36 610.771 395.764C610.892 396.521 611.622 396.604 612.18 396.675C615.171 396.415 622.347 397.015 625.408 397.337C645.513 399.449 663.19 405.728 679.539 417.617C696.32 400.581 701.072 382.8 697.463 359.185C694.68 340.977 685.317 324.927 670.2 314.25C648.673 299.045 617.362 292.723 591.546 296.989C592.035 315.495 577.914 325.076 561.764 329.596ZM577.232 467.791C604.887 475.895 628.833 492.131 642.881 517.736L643.122 518.179C647.936 513.44 652.356 508.937 655.224 502.666C660.282 491.609 661.764 475.547 652.371 466.289C645.054 459.078 634.844 457.988 625.086 458.039C623.765 458.097 620.695 458.43 619.818 457.75C622.308 456.758 624.483 456.75 627.16 456.515C630.055 456.008 632.566 456.033 635.469 456.106C666.885 456.897 671.638 489.261 655.371 510.391C652.271 514.343 648.663 517.87 644.641 520.88C646.12 524.425 648.748 530.191 649.843 533.651C653.924 546.542 656.094 565.143 653.548 578.504C692.256 560.962 718.364 532.465 713.528 487.626C710.532 459.851 702.4 440.252 680.53 422.262C679.473 423.247 678.385 424.197 677.266 425.11C656.803 442.042 624.302 450.583 597.905 448.161C591.176 456.163 585.688 461.328 577.232 467.791ZM356.81 379.557C357.497 379.226 366.336 365.61 367.98 363.543C351.154 366.951 328.365 361.12 323.107 343.035C318.529 328.952 327.75 310.769 341.879 306.093C355.159 301.697 360.147 319.597 373.49 316.41C378.486 315.217 374.726 306.719 373.096 303.633L373.367 303.17C383.543 303.136 383.136 314.368 378.544 320.597C373.544 327.447 369.091 328.85 361.132 329.619C352.074 330.494 335.897 312.246 329.161 323.626C323.868 332.567 328.38 349.8 337.931 354.63C349.906 360.685 361.133 359.942 373.718 356.743C383.367 347.584 387.87 344.209 399.032 337.22C403.301 327.428 403.54 318.908 399.702 308.856C388.786 280.26 347.089 273.73 321.706 283.636C288.554 296.573 272.46 335.317 286.12 368.029C293.002 384.51 302.003 392.93 316.826 402.091C329.495 390.728 340.608 384.906 356.81 379.557ZM417.049 679.149C397.571 692.717 401.468 709.839 373.968 717.731C325.754 731.567 317.141 680.144 355.192 659.454C345.035 644.929 356.031 629.91 368.262 621.368C389.487 606.544 413.406 604.678 438.339 608.767C438.511 605.123 439.883 589.669 438.577 587.157C380.434 592.211 290.57 621.248 294.311 695.774C295.001 709.513 301.743 722.713 312.266 731.201C323.274 740.256 342.041 746.648 356.242 745.045C375.158 742.91 397.043 735.447 409.152 719.967C418.551 707.951 421.209 693.744 417.049 679.149ZM381.039 359.769C377.373 362.16 368.629 372.678 367.53 376.262L367.676 376.73C390.138 371.557 410.451 373.267 431.639 382.731C442.848 375.139 454.921 368.14 465.598 359.782C478.606 349.6 490.541 340.27 504.448 331.214C497.648 329.429 488.737 328.747 481.488 328.466C454.452 327.416 424.943 330.829 401.06 344.178C399.489 345.056 398.161 346.017 396.877 347.258C392.673 352.848 387.534 357.058 381.039 359.769ZM554.057 356.939C542.633 375.948 538.938 398.897 550.025 418.996C557.372 412.81 565.675 407.861 574.61 404.34C574.606 403.297 573.724 398.68 573.486 397.407C570.715 382.432 564.01 368.465 554.057 356.939ZM392.785 652.793C403.989 646.904 417.459 633.898 426.279 624.97C403.368 618.007 368.76 616.715 357.224 645.041C355.595 649.04 357.468 654.157 360.375 657.284C369.112 653.092 383.111 650.569 392.785 652.793ZM346.81 409.886C349.29 399.703 351.116 393.586 355.227 383.978C341.555 389.243 332.559 394.665 321.193 404.021C331.341 407.85 336.25 408.796 346.81 409.886ZM438.082 608.758C435.861 613.475 427.359 623.827 427.666 625.337C429.285 625.775 430.413 626.566 431.674 625.192C435.647 620.324 440.257 614.703 444.584 610.145C442.055 609.736 440.551 609.54 438.082 608.758ZM398.102 459.415C387.963 456.405 384.43 455.788 374.148 458.411C381.974 461.87 390.019 462.12 398.102 459.415ZM415.096 673.508C415.728 675.159 416.445 677.668 417.673 678.784C419.297 677.959 420.928 677.144 422.564 676.342C422.022 674.991 421.397 672.977 420.476 672.025L415.096 673.508ZM573.8 437.789C575.679 430.797 575.347 416.794 575.136 409.312C565.99 413.528 560.942 416.739 552.767 422.782C558.91 429.652 565.154 434.322 573.8 437.789ZM352.572 418.794C352.059 431.349 357.011 448.42 368.428 455.213C381.841 451.09 389.946 451.644 403.174 456.467C408.644 451.897 414.189 443.644 412.447 436.512C410.244 427.492 401.668 422.083 395.542 431.598C388.986 426.687 387.859 424.251 386.733 416.459C372.894 420.51 366.831 421.157 352.572 418.794ZM384.531 656.551C378.371 657.475 372.684 658.34 366.654 659.936C370.671 660.874 381.856 659.759 384.531 656.551ZM358.856 662.773C350.651 666.864 344.735 671.293 340.408 679.688C334.595 690.967 336.454 708.506 349.137 714.19C358.14 718.225 374.367 714.514 379.654 705.834C383.736 699.132 387.184 691.771 392.864 686.195C399.414 679.684 406.427 676.647 414.91 673.371C410.339 665.548 407.129 661.66 398.637 657.915C395.918 658.826 393.295 660.349 390.672 661.563C380.374 666.329 369.29 668.598 358.856 662.773ZM365.581 380.699C362.267 382.656 353.879 405.276 354.435 409.504C356.124 409.709 356.814 409.763 358.51 409.769C384.172 407.759 406.046 396.908 428.133 384.731C406.183 376.357 388.551 374.945 365.581 380.699ZM393.656 501.492C399.051 489.582 407.856 483.719 419.926 479.654C416.675 472.24 411.534 467.762 405.331 462.954C392.612 469.711 378.445 467.265 366.116 460.89C360.732 463.82 356.924 465.956 351.923 470.587C339.053 482.505 328.455 512.947 350.997 520.855C353.555 521.752 359.094 522.128 361.747 520.749C363.448 518.426 364.332 515.504 364.702 512.651C366.979 495.135 380.717 492.715 393.656 501.492ZM611.09 401.481C611.435 412.6 609.717 423.687 606.023 434.18C605.328 436.178 601.246 443.018 601.451 443.677L604.36 444.284C628.382 444.159 658.329 434.648 677.009 419.625C656.333 407.011 635.364 401.408 611.09 401.481Z"/><path fill="#E2CFC2" d="M521.423 362.156C524.737 365.025 524.917 373.278 524.397 377.5C523.504 384.749 519.659 391.107 514.245 395.898C508.69 400.815 502.357 405.411 499.379 412.471C496.971 418.247 496.243 427.747 498.751 433.599C501.784 440.679 510.321 442.85 516.878 439.424C522.375 436.512 523.493 432.173 525.126 426.567C524.978 429.263 524.607 432.022 524.296 434.711C520.826 446.421 508.747 446.082 499.818 440.32C486.336 431.619 490.194 402.767 501.315 393.902C513.392 384.276 523.578 380.758 521.423 362.156Z"/><path fill="#E2CFC2" d="M367.98 363.543C351.154 366.951 328.365 361.12 323.107 343.035C318.529 328.952 327.75 310.769 341.879 306.093C355.159 301.697 360.147 319.597 373.49 316.41C378.486 315.217 374.726 306.719 373.096 303.633L373.367 303.17C383.543 303.136 383.136 314.368 378.544 320.597C373.544 327.447 369.091 328.85 361.132 329.619C352.074 330.494 335.897 312.246 329.161 323.626C323.868 332.567 328.38 349.8 337.931 354.63C349.906 360.685 361.133 359.942 373.718 356.743C371.726 359.394 370.22 361.091 367.98 363.543Z"/><path fill="#E2CFC2" d="M570.423 336.589C583.809 328.502 603.227 324.552 619.369 328.071C634.687 331.41 652.107 343.261 649.047 361.561C647.751 369.316 633.384 383.151 649.262 387.806C654.903 389.368 660.975 386.575 665.806 383.264C663.924 386.384 661.181 390.717 657.187 391.393C646.54 393.194 632.744 386.65 630.535 375.44C628.418 364.698 634.408 359.62 637.082 350.536C638.446 345.904 633.951 338.062 629.924 335.832C614.57 326.295 589.184 330.8 574.431 339.416L570.423 336.589Z"/><path fill="#E2CFC2" d="M627.16 456.515C630.055 456.008 632.566 456.033 635.469 456.106C666.885 456.897 671.638 489.261 655.371 510.391C652.271 514.343 648.663 517.87 644.641 520.88C643.923 519.877 643.673 519.27 643.122 518.179C647.936 513.44 652.356 508.937 655.224 502.666C660.282 491.609 661.764 475.547 652.371 466.289C645.054 459.078 634.844 457.988 625.086 458.039L627.16 456.515Z"/><path fill="#E2CFC2" d="M422.674 676.614C423.439 679.088 423.938 681.637 424.161 684.217C425.515 698.759 421.456 715.151 411.79 726.308C387.207 754.285 332.373 760.699 303.303 736.581C289.83 725.403 281.148 704.328 282.682 686.981C284.39 667.649 292.714 647.147 305.612 632.54C338.671 595.097 391.686 584.796 439.154 581.455C439.152 582.758 439.496 586.347 438.577 587.157C380.434 592.211 290.57 621.248 294.311 695.774C295.001 709.513 301.743 722.713 312.266 731.201C323.274 740.256 342.041 746.648 356.242 745.045C375.158 742.91 397.043 735.447 409.152 719.967C418.551 707.951 421.209 693.744 417.049 679.149C397.571 692.717 401.468 709.839 373.968 717.731C325.754 731.567 317.141 680.144 355.192 659.454L358.856 662.773C350.651 666.864 344.735 671.293 340.408 679.688C334.595 690.967 336.454 708.506 349.137 714.19C358.14 718.225 374.367 714.514 379.654 705.834C383.736 699.132 387.184 691.771 392.864 686.195C399.414 679.684 406.427 676.647 414.91 673.371C410.339 665.548 407.129 661.66 398.637 657.915C399.424 656.573 400.827 656.001 402.268 655.128C411.595 658.631 416.138 663.257 420.986 671.66C443.525 667.254 465.501 669.473 478.263 691.21C483.826 700.656 485.363 711.94 482.528 722.53C478.616 736.848 463.418 747.641 448.337 743.136C436.981 739.743 431.323 730.605 434.044 718.975C435.33 713.477 437.769 708.624 443.382 706.391C445.159 705.67 448.167 704.588 449.994 705.339C447.401 706.752 443.294 708.175 441.477 710.533C431.042 724.071 442.228 742.848 459.049 739.825C465.203 738.719 471.161 733.104 474.464 727.712C484.711 710.982 475.774 688.733 459.771 679.293C448.299 672.486 435.194 673.472 422.674 676.614ZM415.096 673.508C415.728 675.159 416.445 677.668 417.673 678.784C419.297 677.959 420.928 677.144 422.564 676.342C422.022 674.991 421.397 672.977 420.476 672.025L415.096 673.508Z"/><path fill="#E2CFC2" d="M484.271 539.772C484.894 537.934 485.788 535.025 486.982 533.551C493.119 525.974 506.559 523.69 515.776 524.791C533.998 526.968 554.185 536.074 561.788 553.918C564.387 559.921 565.232 565.056 566.283 571.419C579.55 579.311 593.322 584.536 608.965 585.105C609.796 587.488 607.235 592.88 606.226 595.44C591.596 595.066 579.106 593.846 564.899 589.706C565.391 585.133 566.783 576.366 565.527 571.773C565.155 570.412 563.822 570.039 562.61 569.458C563.397 575.889 562.664 581.678 562.154 588.103C562.746 589.29 563.204 589.08 564.899 589.706C563.362 599.065 560.255 608.179 554.058 615.549C561.888 620.668 570.085 628.51 576.02 635.764L573.002 638.38C565.427 629.511 560.561 625.186 551.595 618.223C526.201 643.83 475.377 634.505 491.94 592.429C484.491 590.531 476.949 589.024 469.343 587.913C471.88 586.342 473.968 585.133 476.922 584.68C482.68 585.671 488.398 586.881 494.064 588.307C499.262 580.782 504.73 575.647 513.091 571.644C527.608 564.694 547.425 562.627 562.472 568.997C558.502 554.259 553.46 544.951 539.672 537.114C527.348 530.109 512.58 526.989 498.612 530.518C490.922 532.46 489.782 535.503 484.271 539.772ZM547.263 615.448C529.442 603.862 516.96 600.195 497.43 593.675C491.778 607.046 493.017 620.301 508.002 626.916C517.594 631.151 529.162 627.327 537.909 622.393C541.879 619.865 543.689 618.497 547.263 615.448ZM500.375 590.061C514.103 594.133 532.379 600.977 544.343 608.981C546.312 610.153 548.254 611.372 550.165 612.638C556.901 603.659 558.766 599.715 561.745 588.813C550.101 585.594 533.775 578.076 522.35 579.308C513.008 580.117 506.849 583.368 500.375 590.061Z"/><path fill="#E2CFC2" d="M312.565 406.06C300.276 397.989 292.076 390.978 284.96 377.578C268.513 346.605 280.651 299.028 312.717 283.071C339.506 269.74 386.943 272.433 401.649 302.882C406.979 313.917 407.472 323.242 403.624 334.789C402.11 335.668 400.662 336.582 399.032 337.22C403.301 327.428 403.54 318.908 399.702 308.856C388.786 280.26 347.089 273.73 321.706 283.636C288.554 296.573 272.46 335.317 286.12 368.029C293.002 384.51 302.003 392.93 316.826 402.091C329.495 390.728 340.608 384.906 356.81 379.557C357.261 381.04 356.076 382.7 355.227 383.978C341.555 389.243 332.559 394.665 321.193 404.021C331.341 407.85 336.25 408.796 346.81 409.886L345.571 417.882C335.842 415.385 325.629 412.776 316.725 408.03C311.108 414.368 306.869 419.176 302.212 426.498C288.45 448.138 282.404 476.327 283.479 501.823C284.235 519.759 291.572 536.504 305.075 548.444C318.776 560.56 342.298 569.671 360.63 568.312C379.068 566.945 399.404 559.186 411.489 544.662C420.082 534.333 422.651 525.009 424.562 512.081C426.026 512.196 427.506 512.174 428.815 512.772C422.391 553.646 394.383 580.904 352.448 582.819C306.304 584.925 279 545.344 277.715 502.691C276.652 467.426 287.848 431.835 312.565 406.06Z"/><path fill="#E2CFC2" d="M587.278 293.079C583.365 286.086 579.332 282.787 571.404 280.561C556.365 276.338 539.81 279.947 526.404 287.427C519.324 291.377 514.757 296.844 508.275 301.244C503.399 304.554 496.606 306.992 491.112 308.874C476.788 314.043 462.729 315.376 448.024 310.943C438.772 308.154 429.207 303.636 424.63 294.567C416.932 279.315 421.554 261.883 437.008 254.066C448.846 248.069 462.612 247.137 475.15 251.484C482.156 253.853 487.3 257.152 492.182 262.707C477.577 254.687 465.29 249.467 448.357 254.439C432.901 258.977 421.904 269.674 427.818 287.009C435.79 310.379 466.033 312.051 485.948 305.492C495.895 302.216 504.526 293.056 513.029 287.2C531.695 274.392 556.249 269.447 577.663 278.203C584.091 280.832 588.418 286.054 590.759 292.469C616.132 286.971 647.25 294.361 669.474 307.814C703.058 328.143 713.891 375.75 691.915 409.114C689.277 413.105 686.216 416.8 682.785 420.134C702.076 435.298 714.61 457.456 717.668 481.801C720.787 507.22 712.459 532.361 696.76 552.329C684.972 567.338 669.523 579.064 651.896 586.38C652.211 583.731 652.924 581.107 653.548 578.504C692.256 560.962 718.364 532.465 713.528 487.626C710.532 459.851 702.4 440.252 680.53 422.262C679.473 423.247 678.385 424.197 677.266 425.11C656.803 442.042 624.302 450.583 597.905 448.161C600.396 444.139 599.875 444.398 604.36 444.284C628.382 444.159 658.329 434.648 677.009 419.625C656.333 407.011 635.364 401.408 611.09 401.481C610.835 399.743 610.545 398.841 611.067 397.158L612.18 396.675C615.171 396.415 622.347 397.015 625.408 397.337C645.513 399.449 663.19 405.728 679.539 417.617C696.32 400.581 701.072 382.8 697.463 359.185C694.68 340.977 685.317 324.927 670.2 314.25C648.673 299.045 617.362 292.723 591.546 296.989C592.035 315.495 577.914 325.076 561.764 329.596C576.59 320.99 587.498 317.761 588.027 297.455C564.096 302.746 549.583 308.276 527.866 319.737C526.143 319.844 526.003 319.681 524.396 319.14C542.35 308.993 566.776 297 587.278 293.079Z"/><path fill="#7D492F" d="M528.854 461.451C541.578 461.256 548.504 461.418 561.268 463.85C558.41 467.078 557.048 468.378 553.756 471.175C558.257 472.721 561.89 474.21 566.252 476.046C553.336 482.148 544.197 486.227 529.864 489.015L520.033 490.74C511.483 491.688 498.39 492.537 490.523 488.427C488.79 487.5 486.8 485.373 486.572 483.319C484.746 466.925 509.936 463.731 520.394 462.113L528.854 461.451ZM519.206 467.021C485.034 473.025 486.965 491.949 518.835 485.181C517.931 478.465 517.773 473.687 519.206 467.021ZM528.369 483.254C538.647 480.564 545.056 476.896 553.705 471.198C543.954 468.224 537.901 467.324 527.905 466.571C527.793 472.269 527.607 477.567 528.369 483.254Z"/><path fill="#E2CFC2" d="M519.206 467.021C522.347 466.676 524.754 466.627 527.905 466.571C527.793 472.269 527.607 477.567 528.369 483.254C524.877 484.127 522.417 484.794 518.835 485.181C517.931 478.465 517.773 473.687 519.206 467.021Z"/><path fill="#E2CFC2" d="M504.448 331.214C506.046 331.342 506.515 331.353 508.105 331.744C499.479 337.893 490.977 344.052 483.028 351.068C468.873 363.563 455.18 376.753 439.671 387.638C442.663 390.107 445.966 393.466 448.581 396.378L437.431 389.311C430.686 394.169 420.841 400.821 413.397 404.574C400.246 398.936 390.107 401.496 386.733 416.459C372.894 420.51 366.831 421.157 352.572 418.794C353.187 412.839 352.027 410.455 358.51 409.769C384.172 407.759 406.046 396.908 428.133 384.731C406.183 376.357 388.551 374.945 365.581 380.699L365.074 380.274C365.275 378.639 366.226 377.406 367.676 376.73C390.138 371.557 410.451 373.267 431.639 382.731C442.848 375.139 454.921 368.14 465.598 359.782C478.606 349.6 490.541 340.27 504.448 331.214Z"/><path fill="#E2CFC2" d="M361.738 458.063L366.116 460.89C360.732 463.82 356.924 465.956 351.923 470.587C339.053 482.505 328.455 512.947 350.997 520.855C353.555 521.752 359.094 522.128 361.747 520.749C363.448 518.426 364.332 515.504 364.702 512.651C366.979 495.135 380.717 492.715 393.656 501.492L393.116 502.795C372.866 504.118 382.542 518.819 371.628 524.612C346.193 538.113 327.425 512.047 335.349 488.487C340.7 472.574 348.983 465.372 361.738 458.063Z"/><path fill="#E2CFC2" d="M550.84 353.608L554.057 356.939C542.633 375.948 538.938 398.897 550.025 418.996C557.372 412.81 565.675 407.861 574.61 404.34C574.761 405.708 575.093 408.018 575.136 409.312C565.99 413.528 560.942 416.739 552.767 422.782C558.91 429.652 565.154 434.322 573.8 437.789C573.435 439.394 573.104 441.08 572.589 442.631C563.043 438.583 555.651 434.559 548.896 426.387C538.07 437.543 532.548 446.226 528.854 461.451L520.394 462.113C524.495 446.691 534.224 432.98 545.997 422.417C534.125 401.104 538.379 373.693 550.84 353.608Z"/><path fill="#E2CFC2" d="M520.033 490.74L529.864 489.015C537.331 515.179 568.128 532.135 594.033 534.23C597.991 534.55 604.677 533.431 608.785 532.874L609.736 537.139C593.381 541.885 572.337 540.398 557.103 532.871C538.09 523.478 527.009 510.342 520.033 490.74Z"/><path fill="#E2CFC2" d="M368.428 455.213C381.841 451.09 389.946 451.644 403.174 456.467C401.32 457.642 400.059 458.448 398.102 459.415C387.963 456.405 384.43 455.788 374.148 458.411C371.489 457.37 370.748 456.8 368.428 455.213Z"/><path fill="#E2CFC2" d="M405.331 462.954C406.731 461.976 408.274 460.788 409.816 460.14C417.545 465.802 420.434 469.576 424.744 478.233L419.926 479.654C416.675 472.24 411.534 467.762 405.331 462.954Z"/><path fill="#E2CFC2" d="M381.039 359.769C381.816 356.976 393.77 347.703 396.877 347.258C392.673 352.848 387.534 357.058 381.039 359.769Z"/><path fill="#E2CFC2" d="M360.375 657.284C369.112 653.092 383.111 650.569 392.785 652.793C390.126 654.545 387.781 656.041 384.531 656.551C378.371 657.475 372.684 658.34 366.654 659.936C364.156 659.818 362.384 658.62 360.375 657.284Z"/><path fill="#E2CFC2" d="M681.128 667.613C678.961 674.874 676.02 680.903 668.668 684.324C641.835 696.81 611.13 681.697 622.131 648.644C630.72 622.841 665.668 611.901 689.677 621.028C701.759 625.621 712.839 633.534 718.291 645.769C730.13 674.586 717.112 706.896 688.315 719.082C664.783 729.039 643.212 728.724 619.385 720.187C605.729 715.029 598.906 709.231 592.819 696.308C588.296 720.315 571.017 736.344 545.88 731.295C530.872 728.281 523.161 714.999 526.443 700.66C532.852 672.658 568.469 669.517 590.045 680.442C588.039 669.857 587.067 664.224 582.573 654.277C583.691 653.616 585.602 652.791 586.842 652.212C592.781 664.379 593.855 670.095 594.952 683.346C606.739 691.04 610.009 696.781 619.088 706.565C644.67 734.134 691.978 721.719 711.258 692.914C724.298 673.432 717.778 642.673 697.629 630.343C686.695 623.632 673.028 620.931 660.428 623.692C643.758 627.346 631.069 646.404 634.962 663.242C638.12 676.898 650.417 685.623 664.485 681.859C672.775 679.64 676.935 674.661 681.128 667.613ZM572.441 722.59C584.064 714.336 586.607 704.774 590.092 691.635L592.995 696.331C593.488 692.228 594.207 687.326 594.469 683.263L590.353 680.814C590.457 685.054 590.482 687.939 590.156 692.143C583.238 684.398 573.491 677.395 562.468 678.902C557.176 679.455 550.695 680.602 546.027 683.174C522.522 696.123 527.197 732.463 559.124 727.595C563.864 726.876 568.401 725.171 572.441 722.59Z"/><path fill="#E2C9C1" fill-opacity="0.96470588" d="M625.086 458.039C623.765 458.097 620.695 458.43 619.818 457.75C622.308 456.758 624.483 456.75 627.16 456.515L625.086 458.039Z"/></svg>